<?xml version="1.0" encoding="UTF-8" standalone="no"?>
<!-- Generator: Adobe Illustrator 19.0.0, SVG Export Plug-In . SVG Version: 6.00 Build 0)  -->

<svg
   xmlns:dc="http://purl.org/dc/elements/1.1/"
   xmlns:cc="http://creativecommons.org/ns#"
   xmlns:rdf="http://www.w3.org/1999/02/22-rdf-syntax-ns#"
   xmlns:svg="http://www.w3.org/2000/svg"
   xmlns="http://www.w3.org/2000/svg"
   xmlns:sodipodi="http://sodipodi.sourceforge.net/DTD/sodipodi-0.dtd"
   xmlns:inkscape="http://www.inkscape.org/namespaces/inkscape"
   version="1.1"
   id="Capa_1"
   x="0px"
   y="0px"
   viewBox="0 0 128 128"
   xml:space="preserve"
   sodipodi:docname="pgk.svg"
   width="128"
   height="128"
   inkscape:version="0.92.4 (5da689c313, 2019-01-14)"><metadata
   id="metadata109"><rdf:RDF><cc:Work
       rdf:about=""><dc:format>image/svg+xml</dc:format><dc:type
         rdf:resource="http://purl.org/dc/dcmitype/StillImage" /><dc:title></dc:title></cc:Work></rdf:RDF></metadata><defs
   id="defs107" /><sodipodi:namedview
   pagecolor="#ffffff"
   bordercolor="#666666"
   borderopacity="1"
   objecttolerance="10"
   gridtolerance="10"
   guidetolerance="10"
   inkscape:pageopacity="0"
   inkscape:pageshadow="2"
   inkscape:window-width="1920"
   inkscape:window-height="1027"
   id="namedview105"
   showgrid="false"
   inkscape:zoom="1.4018582"
   inkscape:cx="341.73368"
   inkscape:cy="111.65313"
   inkscape:window-x="-8"
   inkscape:window-y="-8"
   inkscape:window-maximized="1"
   inkscape:current-layer="Capa_1" />
<g
   id="g6"
   style="fill:#86c2ff;fill-opacity:1"
   transform="matrix(0.25508903,0,0,0.24610653,2.8533557,6.2192558)">
	<g
   id="g4"
   style="fill:#86c2ff;fill-opacity:1">
		<path
   d="m 260.113,0.256 c 27.11,39.264 48.236,82.339 62.686,127.812 33.065,-5.187 64.911,-16.343 93.986,-32.922 l 8.533,-5.291 C 384.841,38.629 325.127,6.243 260.113,0.256 Z"
   id="path2"
   inkscape:connector-curvature="0"
   style="fill:#86c2ff;fill-opacity:1" />
	</g>
</g>
<g
   id="g12"
   style="fill:#86c2ff;fill-opacity:1"
   transform="matrix(0.25508903,0,0,0.24610653,2.8533557,6.2192558)">
	<g
   id="g10"
   style="fill:#86c2ff;fill-opacity:1">
		<path
   d="m 297.813,166.4 c -19.83,2.271 -39.774,3.411 -59.733,3.413 -19.96,-0.003 -39.903,-1.142 -59.733,-3.413 -4.213,17.945 -6.896,36.215 -8.021,54.613 h 135.509 c -1.125,-18.398 -3.809,-36.668 -8.022,-54.613 z"
   id="path8"
   inkscape:connector-curvature="0"
   style="fill:#86c2ff;fill-opacity:1" />
	</g>
</g>
<g
   id="g18"
   style="fill:#86c2ff;fill-opacity:1"
   transform="matrix(0.25508903,0,0,0.24610653,2.8533557,6.2192558)">
	<g
   id="g16"
   style="fill:#86c2ff;fill-opacity:1">
		<path
   d="m 238.08,340.48 c -16.816,0.015 -33.62,0.886 -50.347,2.611 12.305,36.743 29.223,71.776 50.347,104.26 21.124,-32.484 38.041,-67.518 50.347,-104.26 -16.727,-1.725 -33.531,-2.596 -50.347,-2.611 z"
   id="path14"
   inkscape:connector-curvature="0"
   style="fill:#86c2ff;fill-opacity:1" />
	</g>
</g>
<g
   id="g24"
   style="fill:#86c2ff;fill-opacity:1"
   transform="matrix(0.25508903,0,0,0.24610653,2.8533557,6.2192558)">
	<g
   id="g22"
   style="fill:#86c2ff;fill-opacity:1">
		<path
   d="m 339.831,255.147 c -1.04,20.137 -3.763,40.153 -8.141,59.836 36.337,6.036 71.283,18.595 103.151,37.069 l 9.643,6.007 c 18.303,-31.424 29.141,-66.634 31.676,-102.912 z"
   id="path20"
   inkscape:connector-curvature="0"
   style="fill:#86c2ff;fill-opacity:1" />
	</g>
</g>
<g
   id="g30"
   style="fill:#86c2ff;fill-opacity:1"
   transform="matrix(0.25508903,0,0,0.24610653,2.8533557,6.2192558)">
	<g
   id="g28"
   style="fill:#86c2ff;fill-opacity:1">
		<path
   d="m 444.484,118.118 -9.643,6.008 c -31.862,18.504 -66.808,31.091 -103.151,37.154 4.372,19.65 7.095,39.63 8.141,59.733 H 476.16 c -2.538,-36.272 -13.375,-71.475 -31.676,-102.895 z"
   id="path26"
   inkscape:connector-curvature="0"
   style="fill:#86c2ff;fill-opacity:1" />
	</g>
</g>
<g
   id="g36"
   style="fill:#86c2ff;fill-opacity:1"
   transform="matrix(0.25508903,0,0,0.24610653,2.8533557,6.2192558)">
	<g
   id="g34"
   style="fill:#86c2ff;fill-opacity:1">
		<path
   d="m 170.325,255.147 c 1.135,18.4 3.83,36.67 8.055,54.613 39.693,-4.534 79.773,-4.534 119.467,0 4.202,-17.946 6.874,-36.216 7.987,-54.613 z"
   id="path32"
   inkscape:connector-curvature="0"
   style="fill:#86c2ff;fill-opacity:1" />
	</g>
</g>
<g
   id="g42"
   style="fill:#86c2ff;fill-opacity:1"
   transform="matrix(0.25508903,0,0,0.24610653,2.8533557,6.2192558)">
	<g
   id="g40"
   style="fill:#86c2ff;fill-opacity:1">
		<path
   d="m 41.318,124.126 -9.643,-6.008 C 13.375,149.538 2.538,184.741 0,221.013 h 136.329 c 1.046,-20.103 3.769,-40.084 8.141,-59.733 -36.343,-6.063 -71.29,-18.65 -103.152,-37.154 z"
   id="path38"
   inkscape:connector-curvature="0"
   style="fill:#86c2ff;fill-opacity:1" />
	</g>
</g>
<g
   id="g48"
   style="fill:#86c2ff;fill-opacity:1"
   transform="matrix(0.25508903,0,0,0.24610653,2.8533557,6.2192558)">
	<g
   id="g46"
   style="fill:#86c2ff;fill-opacity:1">
		<path
   d="m 153.361,348.109 c -33.062,5.189 -64.907,16.338 -93.986,32.905 l -8.533,5.308 c 40.474,51.228 100.192,83.61 165.205,89.583 -27.114,-39.257 -48.24,-82.326 -62.686,-127.796 z"
   id="path44"
   inkscape:connector-curvature="0"
   style="fill:#86c2ff;fill-opacity:1" />
	</g>
</g>
<g
   id="g54"
   style="fill:#86c2ff;fill-opacity:1"
   transform="matrix(0.25508903,0,0,0.24610653,2.8533557,6.2192558)">
	<g
   id="g52"
   style="fill:#86c2ff;fill-opacity:1">
		<path
   d="m 238.08,28.826 c -21.121,32.48 -38.038,67.507 -50.347,104.243 16.726,1.734 33.531,2.605 50.347,2.611 16.816,-0.006 33.62,-0.878 50.347,-2.611 C 276.118,96.333 259.201,61.306 238.08,28.826 Z"
   id="path50"
   inkscape:connector-curvature="0"
   style="fill:#86c2ff;fill-opacity:1" />
	</g>
</g>
<g
   id="g60"
   style="fill:#86c2ff;fill-opacity:1"
   transform="matrix(0.25508903,0,0,0.24610653,2.8533557,6.2192558)">
	<g
   id="g58"
   style="fill:#86c2ff;fill-opacity:1">
		<path
   d="m 416.785,381.013 c -29.079,-16.566 -60.924,-27.715 -93.986,-32.905 -14.461,45.473 -35.605,88.542 -62.737,127.795 65.014,-5.973 124.731,-38.355 165.205,-89.583 z"
   id="path56"
   inkscape:connector-curvature="0"
   style="fill:#86c2ff;fill-opacity:1" />
	</g>
</g>
<g
   id="g66"
   style="fill:#86c2ff;fill-opacity:1"
   transform="matrix(0.25508903,0,0,0.24610653,2.8533557,6.2192558)">
	<g
   id="g64"
   style="fill:#86c2ff;fill-opacity:1">
		<path
   d="m 50.893,89.856 8.482,5.291 c 29.075,16.579 60.921,27.734 93.986,32.922 C 167.826,82.592 188.97,39.518 216.098,0.257 151.085,6.243 91.371,38.629 50.893,89.856 Z"
   id="path62"
   inkscape:connector-curvature="0"
   style="fill:#86c2ff;fill-opacity:1" />
	</g>
</g>
<g
   id="g72"
   style="fill:#86c2ff;fill-opacity:1"
   transform="matrix(0.25508903,0,0,0.24610653,2.8533557,6.2192558)">
	<g
   id="g70"
   style="fill:#86c2ff;fill-opacity:1">
		<path
   d="M 136.329,255.147 H 0 c 2.535,36.278 13.372,71.488 31.676,102.912 l 9.643,-6.007 c 31.868,-18.474 66.814,-31.032 103.151,-37.069 -4.379,-19.684 -7.102,-39.699 -8.141,-59.836 z"
   id="path68"
   inkscape:connector-curvature="0"
   style="fill:#86c2ff;fill-opacity:1" />
	</g>
</g>
<g
   id="g74"
   transform="translate(0,-348.16)">
</g>
<g
   id="g76"
   transform="translate(0,-348.16)">
</g>
<g
   id="g78"
   transform="translate(0,-348.16)">
</g>
<g
   id="g80"
   transform="translate(0,-348.16)">
</g>
<g
   id="g82"
   transform="translate(0,-348.16)">
</g>
<g
   id="g84"
   transform="translate(0,-348.16)">
</g>
<g
   id="g86"
   transform="translate(0,-348.16)">
</g>
<g
   id="g88"
   transform="translate(0,-348.16)">
</g>
<g
   id="g90"
   transform="translate(0,-348.16)">
</g>
<g
   id="g92"
   transform="translate(0,-348.16)">
</g>
<g
   id="g94"
   transform="translate(0,-348.16)">
</g>
<g
   id="g96"
   transform="translate(0,-348.16)">
</g>
<g
   id="g98"
   transform="translate(0,-348.16)">
</g>
<g
   id="g100"
   transform="translate(0,-348.16)">
</g>
<g
   id="g102"
   transform="translate(0,-348.16)">
</g>
</svg>